# xmcd
#
# Track frame offsets: 
#        150
#        15228
#        34092
#        47464
#        56835
#        72609
#        84602
#        99214
#        113916
#        126332
#
# Disc length: 1797 seconds
#
# Revision: 0
# Processed by: cddbd v1.5.2PL0 Copyright (c) Steve Scherf et al.
# Submitted via: ExactAudioCopy v0.99pb3
#
DISCID=7f07030a
DTITLE=Kitty,Daisy and Lewis - Kitty,Daisy and Lewis
DYEAR=2008
DGENRE=Country
TTITLE0=Going up the country
TTITLE1=Buggin' blues
TTITLE2=Polly put the kettle on
TTITLE3=Honolulu rock-a roll-a
TTITLE4=I got my mojo working
TTITLE5=Mean son of a gun
TTITLE6=Hillbilly music
TTITLE7=Mohair Sam
TTITLE8=Ooo wee
TTITLE9=Swinging Hawaii
EXTD=
EXTT0=
EXTT1=
EXTT2=
EXTT3=
EXTT4=
EXTT5=
EXTT6=
EXTT7=
EXTT8=
EXTT9=
PLAYORDER=
